<mxfile host="app.diagrams.net" modified="2024-03-05T19:42:15.376Z" agent="Mozilla/5.0 (Windows NT 10.0; Win64; x64) AppleWebKit/537.36 (KHTML, like Gecko) Chrome/122.0.0.0 Safari/537.36" etag="IK99ArAFhqu5DfUlORUK" version="24.0.1" type="github">
  <diagram name="PÃ¡gina-1" id="zSNo9DeR42n44AR205fV">
    <mxGraphModel dx="989" dy="538" grid="1" gridSize="10" guides="1" tooltips="1" connect="1" arrows="1" fold="1" page="1" pageScale="1" pageWidth="827" pageHeight="1169" math="0" shadow="0">
      <root>
        <mxCell id="0" />
        <mxCell id="1" parent="0" />
        <mxCell id="jgdwB7tnTDBA6zWfQBGV-147" value="Vendedor" style="shape=umlActor;verticalLabelPosition=bottom;verticalAlign=top;html=1;outlineConnect=0;" vertex="1" parent="1">
          <mxGeometry x="420" y="342.5" width="20" height="40" as="geometry" />
        </mxCell>
        <mxCell id="jgdwB7tnTDBA6zWfQBGV-148" value="Gerente" style="shape=umlActor;verticalLabelPosition=bottom;verticalAlign=top;html=1;outlineConnect=0;" vertex="1" parent="1">
          <mxGeometry x="30" y="220" width="20" height="40" as="geometry" />
        </mxCell>
        <mxCell id="jgdwB7tnTDBA6zWfQBGV-149" value="" style="ellipse;whiteSpace=wrap;html=1;" vertex="1" parent="1">
          <mxGeometry x="170" y="30" width="120" height="40" as="geometry" />
        </mxCell>
        <mxCell id="jgdwB7tnTDBA6zWfQBGV-150" value="" style="ellipse;whiteSpace=wrap;html=1;" vertex="1" parent="1">
          <mxGeometry x="170" y="70" width="120" height="40" as="geometry" />
        </mxCell>
        <mxCell id="jgdwB7tnTDBA6zWfQBGV-151" value="Add books" style="text;html=1;align=center;verticalAlign=middle;whiteSpace=wrap;rounded=0;" vertex="1" parent="1">
          <mxGeometry x="200" y="35" width="60" height="30" as="geometry" />
        </mxCell>
        <mxCell id="jgdwB7tnTDBA6zWfQBGV-152" value="Att info books" style="text;html=1;align=center;verticalAlign=middle;whiteSpace=wrap;rounded=0;" vertex="1" parent="1">
          <mxGeometry x="200" y="75" width="60" height="30" as="geometry" />
        </mxCell>
        <mxCell id="jgdwB7tnTDBA6zWfQBGV-153" value="" style="ellipse;whiteSpace=wrap;html=1;" vertex="1" parent="1">
          <mxGeometry x="170" y="110" width="120" height="40" as="geometry" />
        </mxCell>
        <mxCell id="jgdwB7tnTDBA6zWfQBGV-154" value="" style="ellipse;whiteSpace=wrap;html=1;" vertex="1" parent="1">
          <mxGeometry x="170" y="150" width="120" height="40" as="geometry" />
        </mxCell>
        <mxCell id="jgdwB7tnTDBA6zWfQBGV-155" value="Remove books" style="text;html=1;align=center;verticalAlign=middle;whiteSpace=wrap;rounded=0;" vertex="1" parent="1">
          <mxGeometry x="200" y="115" width="60" height="30" as="geometry" />
        </mxCell>
        <mxCell id="jgdwB7tnTDBA6zWfQBGV-156" value="Querys books" style="text;html=1;align=center;verticalAlign=middle;whiteSpace=wrap;rounded=0;" vertex="1" parent="1">
          <mxGeometry x="200" y="155" width="60" height="30" as="geometry" />
        </mxCell>
        <mxCell id="jgdwB7tnTDBA6zWfQBGV-157" value="" style="ellipse;whiteSpace=wrap;html=1;" vertex="1" parent="1">
          <mxGeometry x="170" y="190" width="120" height="40" as="geometry" />
        </mxCell>
        <mxCell id="jgdwB7tnTDBA6zWfQBGV-158" value="" style="ellipse;whiteSpace=wrap;html=1;" vertex="1" parent="1">
          <mxGeometry x="170" y="230" width="120" height="40" as="geometry" />
        </mxCell>
        <mxCell id="jgdwB7tnTDBA6zWfQBGV-159" value="Add clientes" style="text;html=1;align=center;verticalAlign=middle;whiteSpace=wrap;rounded=0;" vertex="1" parent="1">
          <mxGeometry x="200" y="195" width="60" height="30" as="geometry" />
        </mxCell>
        <mxCell id="jgdwB7tnTDBA6zWfQBGV-160" value="Att info clientes" style="text;html=1;align=center;verticalAlign=middle;whiteSpace=wrap;rounded=0;" vertex="1" parent="1">
          <mxGeometry x="200" y="235" width="60" height="30" as="geometry" />
        </mxCell>
        <mxCell id="jgdwB7tnTDBA6zWfQBGV-161" value="" style="ellipse;whiteSpace=wrap;html=1;" vertex="1" parent="1">
          <mxGeometry x="170" y="270" width="120" height="40" as="geometry" />
        </mxCell>
        <mxCell id="jgdwB7tnTDBA6zWfQBGV-163" value="Query clientes" style="text;html=1;align=center;verticalAlign=middle;whiteSpace=wrap;rounded=0;" vertex="1" parent="1">
          <mxGeometry x="200" y="275" width="60" height="30" as="geometry" />
        </mxCell>
        <mxCell id="jgdwB7tnTDBA6zWfQBGV-166" value="Cliente" style="shape=umlActor;verticalLabelPosition=bottom;verticalAlign=top;html=1;outlineConnect=0;" vertex="1" parent="1">
          <mxGeometry x="420" y="430" width="20" height="40" as="geometry" />
        </mxCell>
        <mxCell id="jgdwB7tnTDBA6zWfQBGV-172" value="" style="endArrow=none;html=1;rounded=0;" edge="1" parent="1">
          <mxGeometry width="50" height="50" relative="1" as="geometry">
            <mxPoint x="80" y="149.83" as="sourcePoint" />
            <mxPoint x="80" y="49.83" as="targetPoint" />
            <Array as="points">
              <mxPoint x="80" y="109.83" />
            </Array>
          </mxGeometry>
        </mxCell>
        <mxCell id="jgdwB7tnTDBA6zWfQBGV-175" value="" style="endArrow=classic;html=1;rounded=0;" edge="1" parent="1">
          <mxGeometry width="50" height="50" relative="1" as="geometry">
            <mxPoint x="80" y="49.83" as="sourcePoint" />
            <mxPoint x="160" y="49.83" as="targetPoint" />
            <Array as="points">
              <mxPoint x="120" y="49.83" />
            </Array>
          </mxGeometry>
        </mxCell>
        <mxCell id="jgdwB7tnTDBA6zWfQBGV-176" value="" style="endArrow=classic;html=1;rounded=0;" edge="1" parent="1">
          <mxGeometry width="50" height="50" relative="1" as="geometry">
            <mxPoint x="80" y="89.49" as="sourcePoint" />
            <mxPoint x="160" y="89.49" as="targetPoint" />
            <Array as="points">
              <mxPoint x="120" y="89.49" />
            </Array>
          </mxGeometry>
        </mxCell>
        <mxCell id="jgdwB7tnTDBA6zWfQBGV-177" value="" style="endArrow=classic;html=1;rounded=0;" edge="1" parent="1">
          <mxGeometry width="50" height="50" relative="1" as="geometry">
            <mxPoint x="80" y="129.49" as="sourcePoint" />
            <mxPoint x="160" y="129.49" as="targetPoint" />
            <Array as="points">
              <mxPoint x="120" y="129.49" />
            </Array>
          </mxGeometry>
        </mxCell>
        <mxCell id="jgdwB7tnTDBA6zWfQBGV-178" value="" style="endArrow=classic;html=1;rounded=0;" edge="1" parent="1">
          <mxGeometry width="50" height="50" relative="1" as="geometry">
            <mxPoint x="80" y="169.49" as="sourcePoint" />
            <mxPoint x="160" y="169.49" as="targetPoint" />
            <Array as="points">
              <mxPoint x="120" y="169.49" />
            </Array>
          </mxGeometry>
        </mxCell>
        <mxCell id="jgdwB7tnTDBA6zWfQBGV-179" value="" style="endArrow=classic;html=1;rounded=0;" edge="1" parent="1">
          <mxGeometry width="50" height="50" relative="1" as="geometry">
            <mxPoint x="80" y="209.49" as="sourcePoint" />
            <mxPoint x="160" y="209.49" as="targetPoint" />
            <Array as="points">
              <mxPoint x="120" y="209.49" />
            </Array>
          </mxGeometry>
        </mxCell>
        <mxCell id="jgdwB7tnTDBA6zWfQBGV-180" value="" style="endArrow=classic;html=1;rounded=0;" edge="1" parent="1">
          <mxGeometry width="50" height="50" relative="1" as="geometry">
            <mxPoint x="80" y="249.48999999999998" as="sourcePoint" />
            <mxPoint x="160" y="249.48999999999998" as="targetPoint" />
            <Array as="points">
              <mxPoint x="120" y="249.48999999999998" />
            </Array>
          </mxGeometry>
        </mxCell>
        <mxCell id="jgdwB7tnTDBA6zWfQBGV-181" value="" style="endArrow=classic;html=1;rounded=0;" edge="1" parent="1">
          <mxGeometry width="50" height="50" relative="1" as="geometry">
            <mxPoint x="80" y="289.48999999999995" as="sourcePoint" />
            <mxPoint x="160" y="289.48999999999995" as="targetPoint" />
            <Array as="points">
              <mxPoint x="120" y="289.48999999999995" />
            </Array>
          </mxGeometry>
        </mxCell>
        <mxCell id="jgdwB7tnTDBA6zWfQBGV-182" value="" style="endArrow=none;html=1;rounded=0;" edge="1" parent="1">
          <mxGeometry width="50" height="50" relative="1" as="geometry">
            <mxPoint x="80" y="450" as="sourcePoint" />
            <mxPoint x="80" y="190" as="targetPoint" />
            <Array as="points">
              <mxPoint x="80" y="220" />
            </Array>
          </mxGeometry>
        </mxCell>
        <mxCell id="jgdwB7tnTDBA6zWfQBGV-183" value="" style="endArrow=none;html=1;rounded=0;" edge="1" parent="1">
          <mxGeometry width="50" height="50" relative="1" as="geometry">
            <mxPoint x="80" y="199.83" as="sourcePoint" />
            <mxPoint x="80" y="149.83" as="targetPoint" />
          </mxGeometry>
        </mxCell>
        <mxCell id="jgdwB7tnTDBA6zWfQBGV-191" value="" style="ellipse;whiteSpace=wrap;html=1;" vertex="1" parent="1">
          <mxGeometry x="170" y="430" width="120" height="40" as="geometry" />
        </mxCell>
        <mxCell id="jgdwB7tnTDBA6zWfQBGV-192" value="Historico compras" style="text;html=1;align=center;verticalAlign=middle;whiteSpace=wrap;rounded=0;" vertex="1" parent="1">
          <mxGeometry x="200" y="435" width="60" height="30" as="geometry" />
        </mxCell>
        <mxCell id="jgdwB7tnTDBA6zWfQBGV-200" value="" style="ellipse;whiteSpace=wrap;html=1;" vertex="1" parent="1">
          <mxGeometry x="170" y="310" width="120" height="40" as="geometry" />
        </mxCell>
        <mxCell id="jgdwB7tnTDBA6zWfQBGV-201" value="Registrar vendas book" style="text;html=1;align=center;verticalAlign=middle;whiteSpace=wrap;rounded=0;" vertex="1" parent="1">
          <mxGeometry x="205" y="317.5" width="50" height="25" as="geometry" />
        </mxCell>
        <mxCell id="jgdwB7tnTDBA6zWfQBGV-202" value="" style="ellipse;whiteSpace=wrap;html=1;" vertex="1" parent="1">
          <mxGeometry x="170" y="350" width="120" height="40" as="geometry" />
        </mxCell>
        <mxCell id="jgdwB7tnTDBA6zWfQBGV-203" value="Cancelar venda" style="text;html=1;align=center;verticalAlign=middle;whiteSpace=wrap;rounded=0;" vertex="1" parent="1">
          <mxGeometry x="200" y="355" width="60" height="30" as="geometry" />
        </mxCell>
        <mxCell id="jgdwB7tnTDBA6zWfQBGV-204" value="" style="ellipse;whiteSpace=wrap;html=1;" vertex="1" parent="1">
          <mxGeometry x="170" y="390" width="120" height="40" as="geometry" />
        </mxCell>
        <mxCell id="jgdwB7tnTDBA6zWfQBGV-205" value="Query historico venda" style="text;html=1;align=center;verticalAlign=middle;whiteSpace=wrap;rounded=0;" vertex="1" parent="1">
          <mxGeometry x="200" y="395" width="60" height="30" as="geometry" />
        </mxCell>
        <mxCell id="jgdwB7tnTDBA6zWfQBGV-215" value="" style="endArrow=classic;html=1;rounded=0;" edge="1" parent="1">
          <mxGeometry width="50" height="50" relative="1" as="geometry">
            <mxPoint x="80" y="329.66" as="sourcePoint" />
            <mxPoint x="160" y="329.66" as="targetPoint" />
            <Array as="points">
              <mxPoint x="120" y="329.66" />
            </Array>
          </mxGeometry>
        </mxCell>
        <mxCell id="jgdwB7tnTDBA6zWfQBGV-216" value="" style="endArrow=classic;html=1;rounded=0;" edge="1" parent="1">
          <mxGeometry width="50" height="50" relative="1" as="geometry">
            <mxPoint x="80" y="369.66" as="sourcePoint" />
            <mxPoint x="160" y="369.66" as="targetPoint" />
            <Array as="points">
              <mxPoint x="120" y="369.66" />
            </Array>
          </mxGeometry>
        </mxCell>
        <mxCell id="jgdwB7tnTDBA6zWfQBGV-217" value="" style="endArrow=classic;html=1;rounded=0;" edge="1" parent="1">
          <mxGeometry width="50" height="50" relative="1" as="geometry">
            <mxPoint x="80" y="409.65999999999997" as="sourcePoint" />
            <mxPoint x="160" y="409.65999999999997" as="targetPoint" />
            <Array as="points">
              <mxPoint x="120" y="409.65999999999997" />
            </Array>
          </mxGeometry>
        </mxCell>
        <mxCell id="jgdwB7tnTDBA6zWfQBGV-218" value="" style="endArrow=none;html=1;rounded=0;" edge="1" parent="1">
          <mxGeometry width="50" height="50" relative="1" as="geometry">
            <mxPoint x="390" y="410" as="sourcePoint" />
            <mxPoint x="390" y="330" as="targetPoint" />
          </mxGeometry>
        </mxCell>
        <mxCell id="jgdwB7tnTDBA6zWfQBGV-219" value="" style="endArrow=classic;html=1;rounded=0;entryX=1;entryY=0.5;entryDx=0;entryDy=0;" edge="1" parent="1" target="jgdwB7tnTDBA6zWfQBGV-200">
          <mxGeometry width="50" height="50" relative="1" as="geometry">
            <mxPoint x="390" y="330" as="sourcePoint" />
            <mxPoint x="440" y="280" as="targetPoint" />
          </mxGeometry>
        </mxCell>
        <mxCell id="jgdwB7tnTDBA6zWfQBGV-220" value="" style="endArrow=classic;html=1;rounded=0;entryX=1;entryY=0.5;entryDx=0;entryDy=0;" edge="1" parent="1" target="jgdwB7tnTDBA6zWfQBGV-202">
          <mxGeometry width="50" height="50" relative="1" as="geometry">
            <mxPoint x="390" y="370" as="sourcePoint" />
            <mxPoint x="440" y="320" as="targetPoint" />
          </mxGeometry>
        </mxCell>
        <mxCell id="jgdwB7tnTDBA6zWfQBGV-221" value="" style="endArrow=classic;html=1;rounded=0;entryX=1;entryY=0.5;entryDx=0;entryDy=0;" edge="1" parent="1" target="jgdwB7tnTDBA6zWfQBGV-204">
          <mxGeometry width="50" height="50" relative="1" as="geometry">
            <mxPoint x="390" y="410" as="sourcePoint" />
            <mxPoint x="440" y="360" as="targetPoint" />
          </mxGeometry>
        </mxCell>
        <mxCell id="jgdwB7tnTDBA6zWfQBGV-222" value="" style="endArrow=classic;html=1;rounded=0;" edge="1" parent="1">
          <mxGeometry width="50" height="50" relative="1" as="geometry">
            <mxPoint x="80" y="449.65999999999997" as="sourcePoint" />
            <mxPoint x="160" y="449.65999999999997" as="targetPoint" />
            <Array as="points">
              <mxPoint x="120" y="449.65999999999997" />
            </Array>
          </mxGeometry>
        </mxCell>
        <mxCell id="jgdwB7tnTDBA6zWfQBGV-223" value="" style="endArrow=classic;html=1;rounded=0;entryX=1;entryY=0.5;entryDx=0;entryDy=0;" edge="1" parent="1" target="jgdwB7tnTDBA6zWfQBGV-191">
          <mxGeometry width="50" height="50" relative="1" as="geometry">
            <mxPoint x="410" y="450" as="sourcePoint" />
            <mxPoint x="460" y="400" as="targetPoint" />
          </mxGeometry>
        </mxCell>
        <mxCell id="jgdwB7tnTDBA6zWfQBGV-224" value="" style="endArrow=none;html=1;rounded=0;" edge="1" parent="1">
          <mxGeometry width="50" height="50" relative="1" as="geometry">
            <mxPoint x="450" y="449.66" as="sourcePoint" />
            <mxPoint x="560" y="449.66" as="targetPoint" />
          </mxGeometry>
        </mxCell>
        <mxCell id="jgdwB7tnTDBA6zWfQBGV-225" value="" style="endArrow=none;html=1;rounded=0;" edge="1" parent="1">
          <mxGeometry width="50" height="50" relative="1" as="geometry">
            <mxPoint x="560" y="450" as="sourcePoint" />
            <mxPoint x="560" y="170" as="targetPoint" />
          </mxGeometry>
        </mxCell>
        <mxCell id="jgdwB7tnTDBA6zWfQBGV-226" value="" style="endArrow=classic;html=1;rounded=0;entryX=1;entryY=0.5;entryDx=0;entryDy=0;" edge="1" parent="1" target="jgdwB7tnTDBA6zWfQBGV-154">
          <mxGeometry width="50" height="50" relative="1" as="geometry">
            <mxPoint x="560" y="170" as="sourcePoint" />
            <mxPoint x="610" y="120" as="targetPoint" />
          </mxGeometry>
        </mxCell>
        <mxCell id="jgdwB7tnTDBA6zWfQBGV-227" value="" style="endArrow=none;html=1;rounded=0;" edge="1" parent="1">
          <mxGeometry width="50" height="50" relative="1" as="geometry">
            <mxPoint x="440" y="370" as="sourcePoint" />
            <mxPoint x="520" y="370" as="targetPoint" />
          </mxGeometry>
        </mxCell>
        <mxCell id="jgdwB7tnTDBA6zWfQBGV-228" value="" style="endArrow=none;html=1;rounded=0;" edge="1" parent="1">
          <mxGeometry width="50" height="50" relative="1" as="geometry">
            <mxPoint x="520" y="370" as="sourcePoint" />
            <mxPoint x="560" y="370" as="targetPoint" />
          </mxGeometry>
        </mxCell>
      </root>
    </mxGraphModel>
  </diagram>
</mxfile>
